<?xml version="1.0"?>
<svg width="410" height="410" xmlns="http://www.w3.org/2000/svg" xmlns:svg="http://www.w3.org/2000/svg">
 <!-- Created with SVG-edit - https://github.com/SVG-Edit/svgedit-->
 <g class="layer">
  <title>Layer 1</title>
  <ellipse cx="205" cy="205" fill="#000000" id="svg_1" rx="205" ry="205" stroke="#000000" stroke-width="0"/>
  <ellipse cx="205" cy="205" fill="#81023f" id="svg_11" rx="200" ry="200" stroke="#000000" stroke-width="0"/>
  <ellipse cx="205" cy="205" fill="#da0039" id="svg_2" rx="175" ry="175" stroke="#000000" stroke-width="0"/>
  <ellipse cx="205" cy="205" fill="#fc0000" id="svg_3" rx="150" ry="150" stroke="#000000" stroke-width="0"/>
  <ellipse cx="205" cy="205" fill="#fc3b00" id="svg_4" rx="125" ry="125" stroke="#000000" stroke-width="0"/>
  <ellipse cx="205" cy="205" fill="#feb601" id="svg_5" rx="100" ry="100" stroke="#000000" stroke-width="0"/>
  <ellipse cx="205" cy="205" fill="#000000" id="svg_6" rx="75" ry="75" stroke="#000000" stroke-width="0"/>
  <ellipse cx="205" cy="205" fill="#ffffff" id="svg_7" rx="70" ry="70" stroke="#000000" stroke-width="0"/>
  <ellipse cx="205" cy="205" fill="#000000" id="svg_9" rx="5" ry="5" stroke="#000000" stroke-width="0"/>
 </g>
 <g class="layer">
  <title>Layer 2</title>
  <path d="m42,205a163,163 0 0 1 163,-163" fill-opacity="0" id="svg_8" stroke="#ffffff" stroke-linecap="round" stroke-width="7"/>
  <path d="m80,205a125,125 0 0 1 125,-125" fill-opacity="0" id="svg_10" stroke="#ffffff" stroke-linecap="round" stroke-width="7"/>
  <path d="m368,205a163,163 0 0 1 -163,163" fill-opacity="0" id="svg_12" stroke="#ffffff" stroke-linecap="round" stroke-width="7"/>
  <path d="m330,205a125,125 0 0 1 -125,125" fill-opacity="0" id="svg_13" stroke="#ffffff" stroke-linecap="round" stroke-width="7"/>
 </g>
</svg>